# xmcd
#
# Track frame offsets: 
#        150
#        13385
#        24760
#        37603
#        51128
#        62953
#        74308
#        87488
#        103110
#        118735
#
# Disc length: 1811 seconds
#
# Revision: 3
# Processed by: cddbd v1.5PL3 Copyright (c) Steve Scherf et al.
# Submitted via: ExactAudioCopy v0.95a3
#
DISCID=8107110a
DTITLE=Mark Collie - Hardin County Line
DYEAR=1990
DGENRE=Country
TTITLE0=The Good News And The Bad News
TTITLE1=Something With A Ring To It
TTITLE2=Let Her Go
TTITLE3=What I Wouldn't Give
TTITLE4=Where There's Smoke
TTITLE5=Bound To Ramble
TTITLE6=Looks Aren't  Everything
TTITLE7=Another Old Soldier
TTITLE8=Hardin County Line
TTITLE9=Deliver Me
EXTD=
EXTT0=
EXTT1=
EXTT2=
EXTT3=
EXTT4=
EXTT5=
EXTT6=
EXTT7=
EXTT8=
EXTT9=
PLAYORDER=
